<svg xmlns="http://www.w3.org/2000/svg" xmlns:svg="http://www.w3.org/2000/svg" height="640" id="svg2" version="1.1" width="640" xml:space="preserve"><defs id="defs6"></defs><g id="g12" transform="matrix(1.25,0,0,-1.25,0,640)"><path d="m 340.79,59.62 112.218,0 0,112.224 -112.218,0 0,-112.224 z m -141.89,0 112.223,0 0,112.224 -112.223,0 0,-112.224 z m -141.888,0 112.223,0 0,112.224 -112.223,0 0,-112.224 z m 283.778,141.244 112.218,0 0,112.226 -112.218,0 0,-112.226 z m -141.89,0 112.223,0 0,112.226 -112.223,0 0,-112.226 z m -141.888,0 112.223,0 0,112.226 -112.223,0 0,-112.226 z m 283.778,141.246 112.218,0 0,112.223 -112.218,0 0,-112.223 z m -141.89,0 112.223,0 0,112.223 -112.223,0 0,-112.223 z m -141.888,0 112.223,0 0,112.223 -112.223,0 0,-112.223 z" id="path14" style="fill:#ffffff;fill-opacity:1;fill-rule:nonzero;stroke:none"></path></g></svg>