<svg xmlns="http://www.w3.org/2000/svg" xmlns:svg="http://www.w3.org/2000/svg" height="640" id="svg2" version="1.1" width="640" xml:space="preserve"><defs id="defs6"><clipPath id="clipPath18"><path d="M 0,512 512,512 512,0 0,0 0,512 z" id="path20"></path></clipPath></defs><g id="g12" transform="matrix(1.25,0,0,-1.25,0,640)"><g id="g14"><g clip-path="url(#clipPath18)" id="g16"><g id="g22" transform="translate(372.4258,404.8545)"><path d="m 0,0 -233.766,0 c -13.805,0 -25.039,-11.231 -25.039,-25.038 l 0,-246.175 c 0,-13.803 11.234,-25.038 25.039,-25.038 l 233.766,0 c 13.806,0 25.04,11.235 25.04,25.038 l 0,246.175 C 25.04,-11.231 13.806,0 0,0 m 0,25.038 c 27.657,0 50.078,-22.42 50.078,-50.076 l 0,-246.175 c 0,-27.653 -22.421,-50.075 -50.078,-50.075 l -233.766,0 c -27.655,0 -50.076,22.422 -50.076,50.075 l 0,246.175 c 0,27.656 22.421,50.076 50.076,50.076 L 0,25.038" id="path24" style="fill:#ffffff;fill-opacity:1;fill-rule:nonzero;stroke:none"></path></g></g></g></g></svg>