<svg xmlns="http://www.w3.org/2000/svg" xmlns:svg="http://www.w3.org/2000/svg" height="640" id="svg2" version="1.1" width="640" xml:space="preserve"><defs id="defs6"><clipPath id="clipPath18"><path d="M 0,512 512,512 512,0 0,0 0,512 z" id="path20"></path></clipPath></defs><g id="g12" transform="matrix(1.25,0,0,-1.25,0,640)"><g id="g14"><g clip-path="url(#clipPath18)" id="g16"><g id="g22" transform="translate(323.3887,255.4844)"><path d="m 0,0 c 0,-37.027 -30.018,-67.046 -67.042,-67.046 -37.026,0 -67.044,30.019 -67.044,67.046 0,37.025 30.018,67.038 67.044,67.038 C -30.018,67.038 0,37.025 0,0" id="path24" style="fill:#ffffff;fill-opacity:1;fill-rule:nonzero;stroke:none"></path></g><g id="g26" transform="translate(167.7295,344.0938)"><path d="m 0,0 c -22.726,-22.771 -36.689,-53.906 -36.705,-88.609 0.016,-34.699 13.979,-65.839 36.705,-88.613 22.775,-22.72 53.914,-36.682 88.615,-36.7 34.7,0.018 65.839,13.98 88.616,36.7 22.725,22.774 36.688,53.914 36.706,88.613 C 213.919,-53.906 199.95,-22.771 177.231,0 154.454,22.728 123.315,36.695 88.615,36.707 53.914,36.695 22.775,22.728 0,0 M -96.187,-88.609 C -96.169,13.468 -13.46,96.171 88.615,96.196 190.689,96.171 273.396,13.468 273.419,-88.609 c -0.023,-102.074 -82.73,-184.78 -184.804,-184.8 -102.075,0.02 -184.784,82.726 -184.802,184.8" id="path28" style="fill:#ffffff;fill-opacity:1;fill-rule:nonzero;stroke:none"></path></g></g></g></g></svg>