<svg xmlns="http://www.w3.org/2000/svg" xmlns:svg="http://www.w3.org/2000/svg" height="640" id="svg2" version="1.1" width="640" xml:space="preserve"><defs id="defs6"><clipPath id="clipPath18"><path d="M 0,512 512,512 512,0 0,0 0,512 z" id="path20"></path></clipPath></defs><g id="g12" transform="matrix(1.25,0,0,-1.25,0,640)"><g id="g14"><g clip-path="url(#clipPath18)" id="g16"><g id="g22" transform="translate(408.9082,425.6416)"><path d="m 0,0 c -55.975,26.379 -122.761,2.379 -149.132,-53.615 -1.831,-3.885 -3.421,-8.767 -4.813,-14.428 -1.391,5.661 -2.984,10.543 -4.815,14.428 -26.373,55.994 -93.143,79.994 -149.135,53.615 -55.959,-26.371 -79.968,-93.122 -53.596,-149.113 26.368,-55.989 207.502,-216.478 207.502,-216.478 0,0 0.017,0.203 0.042,0.515 0.026,-0.312 0.043,-0.515 0.043,-0.515 0,0 181.134,160.489 207.502,216.478 C 79.971,-93.122 55.995,-26.371 0,0" id="path24" style="fill:#ffffff;fill-opacity:1;fill-rule:evenodd;stroke:none"></path></g></g></g></g></svg>