<svg xmlns="http://www.w3.org/2000/svg" xmlns:svg="http://www.w3.org/2000/svg" height="640" id="svg2" version="1.1" width="640" xml:space="preserve"><defs id="defs6"><clipPath id="clipPath18"><path d="M 0,512 512,512 512,0 0,0 0,512 z" id="path20"></path></clipPath></defs><g id="g12" transform="matrix(1.25,0,0,-1.25,0,640)"><g id="g14"><g clip-path="url(#clipPath18)" id="g16"><g id="g22" transform="translate(288.8438,374.9126)"><path d="m 0,0 -61.342,0 0,-72.882 -57.567,0 88.243,-106.915 88.24,106.915 L 0,-72.882 0,0 z m 49.104,-158.209 0,-52.581 c 0,-13.828 -11.211,-25.039 -25.037,-25.039 l -113.511,0 c -13.828,0 -25.041,11.211 -25.041,25.039 l 0,52.581 -90.189,0 73.031,189.041 197.967,0 73.906,-189.041 -91.126,0 z m 49.703,236.621 -263.069,0 -89.167,-230.823 0,-163.645 441.474,0 0,166.193 -89.238,228.275 z" id="path24" style="fill:#ffffff;fill-opacity:1;fill-rule:nonzero;stroke:none"></path></g></g></g></g></svg>