<svg xmlns="http://www.w3.org/2000/svg" xmlns:svg="http://www.w3.org/2000/svg" height="640" id="svg2" version="1.1" width="640" xml:space="preserve"><defs id="defs6"><clipPath id="clipPath18"><path d="M 0,512 512,512 512,0 0,0 0,512 z" id="path20"></path></clipPath></defs><g id="g12" transform="matrix(1.25,0,0,-1.25,0,640)"><g id="g14"><g clip-path="url(#clipPath18)" id="g16"><g id="g22" transform="translate(35.9341,359.5244)"><path d="m 0,0 0,-162.004 36.571,0 39.868,25.741 0,110.52 L 36.571,0 0,0 z m 382.943,-35.608 0,11.695 c 0,14.844 -12.031,26.877 -26.875,26.877 l -227.717,0 c -14.845,0 -26.877,-12.033 -26.877,-26.877 l 0,-159.369 c 0,-14.842 12.032,-26.874 26.877,-26.874 l 227.717,0 c 14.844,0 26.875,12.032 26.875,26.874 l 0,111.136 52.98,-34.21 0,104.961 -52.98,-34.213 z" id="path24" style="fill:#ffffff;fill-opacity:1;fill-rule:nonzero;stroke:none"></path></g></g></g></g></svg>