<svg xmlns="http://www.w3.org/2000/svg" xmlns:svg="http://www.w3.org/2000/svg" height="640" id="svg2" version="1.1" width="640" xml:space="preserve"><defs id="defs6"></defs><g id="g12" transform="matrix(1.25,0,0,-1.25,0,640)"><g id="g14" transform="translate(401.4307,344.1855)"><path d="M 0,0 -58.757,58.76 -146.786,-29.265 -234.814,58.76 -293.573,0 l 88.025,-88.026 -88.025,-88.025 58.759,-58.767 88.028,88.031 88.029,-88.031 L 0,-176.051 -88.026,-88.026 0,0 z" id="path16" style="fill:#ffffff;fill-opacity:1;fill-rule:nonzero;stroke:none"></path></g><g id="g18" transform="translate(401.4307,344.1855)"><path d="M 0,0 -58.757,58.76 -146.786,-29.265 -234.814,58.76 -293.573,0 l 88.025,-88.026 -88.025,-88.025 58.759,-58.767 88.028,88.031 88.029,-88.031 L 0,-176.051 -88.026,-88.026 0,0 z" id="path20" style="fill:none;stroke:#ffffff;stroke-width:1;stroke-linecap:butt;stroke-linejoin:miter;stroke-miterlimit:4;stroke-opacity:1;stroke-dasharray:none"></path></g></g></svg>