<svg xmlns="http://www.w3.org/2000/svg" xmlns:svg="http://www.w3.org/2000/svg" height="640" id="svg2" version="1.1" width="640" xml:space="preserve"><defs id="defs6"><clipPath id="clipPath18"><path d="M 0,512 512,512 512,0 0,0 0,512 z" id="path20"></path></clipPath></defs><g id="g12" transform="matrix(1.25,0,0,-1.25,0,640)"><g id="g14"><g clip-path="url(#clipPath18)" id="g16"><g id="g22" transform="translate(255.2095,359.2339)"><path d="m 0,0 c -56.695,0 -102.821,-46.125 -102.821,-102.821 0,-56.692 46.126,-102.817 102.821,-102.817 56.695,0 102.818,46.125 102.818,102.817 C 102.818,-46.125 56.695,0 0,0 m 0,115.178 c 120.4,0 217.998,-97.602 217.998,-217.999 0,-120.394 -97.598,-217.996 -217.998,-217.996 -120.397,0 -218,97.602 -218,217.996 0,120.397 97.603,217.999 218,217.999" id="path24" style="fill:#ffffff;fill-opacity:1;fill-rule:nonzero;stroke:none"></path></g><g id="g26" transform="translate(255.2095,230.9844)"><path d="m 0,0 c -14.043,0 -25.43,11.388 -25.43,25.429 0,14.044 11.387,25.43 25.43,25.43 14.044,0 25.429,-11.386 25.429,-25.43 C 25.429,11.388 14.044,0 0,0 m 0,97.599 c -39.856,0 -72.169,-32.312 -72.169,-72.17 0,-39.857 32.313,-72.169 72.169,-72.169 39.856,0 72.167,32.312 72.167,72.169 0,39.858 -32.311,72.17 -72.167,72.17" id="path28" style="fill:#ffffff;fill-opacity:1;fill-rule:nonzero;stroke:none"></path></g></g></g></g></svg>