<svg xmlns="http://www.w3.org/2000/svg" xmlns:svg="http://www.w3.org/2000/svg" height="640" id="svg2" version="1.1" width="640" xml:space="preserve"><defs id="defs6"><clipPath id="clipPath18"><path d="M 0,512 512,512 512,0 0,0 0,512 z" id="path20"></path></clipPath></defs><g id="g12" transform="matrix(1.25,0,0,-1.25,0,640)"><g id="g14"><g clip-path="url(#clipPath18)" id="g16"><g id="g22" transform="translate(457.2109,384.8115)"><path d="m 0,0 c 0,8.98 -7.277,16.256 -16.258,16.256 l -205.648,0 c -6.429,0.161 -11.384,11.842 -11.384,16.31 l 0.003,1.903 c 0,9.546 -7.737,17.28 -17.28,17.28 l -109.476,0 c -9.544,0 -17.281,-7.734 -17.281,-17.28 l 0.004,-1.903 c 0,-4.5 -5.021,-16.322 -11.516,-16.322 l 0.154,0 C -397.525,16.087 -404.647,8.88 -404.647,0 l 0,-11.223 L 0,-11.223 0,0 z m 0,-42.313 0,0.316 -404.647,0 0,-0.327 c -7.956,-1.549 -13.959,-8.547 -13.959,-16.955 0,0 5.683,-86.463 6.726,-117.611 1.045,-31.147 3.844,-114.727 3.844,-114.727 0,-9.544 1.973,-17.281 11.514,-17.281 l 388.458,0 c 9.543,0 11.513,7.737 11.513,17.281 0,0 2.804,83.58 3.845,114.727 1.044,31.148 6.727,117.611 6.727,117.611 0,8.432 -6.035,15.441 -14.021,16.966" id="path24" style="fill:#ffffff;fill-opacity:1;fill-rule:nonzero;stroke:none"></path></g></g></g></g></svg>