<svg xmlns="http://www.w3.org/2000/svg" xmlns:svg="http://www.w3.org/2000/svg" height="640" id="svg2" version="1.1" width="640" xml:space="preserve"><defs id="defs6"><clipPath id="clipPath18"><path d="M 0,512 512,512 512,0 0,0 0,512 z" id="path20"></path></clipPath></defs><g id="g12" transform="matrix(1.25,0,0,-1.25,0,640)"><g id="g14"><g clip-path="url(#clipPath18)" id="g16"><g id="g22" transform="translate(263.5088,408.2612)"><path d="m 0,0 c 0,26.992 23.309,49.073 50.308,49.073 24.555,0 42.336,-16.554 42.336,-41.716 0,-28.233 -23.303,-49.094 -50.915,-49.094 C 16.579,-41.737 0,-25.162 0,0 m -33.125,-120.861 c 4.293,11.035 -1.231,16.553 -6.143,16.553 -22.687,0 -52.154,-53.373 -63.172,-53.373 -4.311,0 -7.991,4.306 -7.991,7.985 0,11.043 26.992,36.805 34.983,44.782 24.528,23.312 56.44,41.105 92.027,41.105 26.368,0 54.601,-15.945 32.515,-75.471 L 4.911,-258.899 c -3.665,-9.205 -10.415,-24.557 -10.415,-34.367 0,-4.29 2.439,-8.595 7.348,-8.595 18.396,0 52.155,52.158 60.748,52.158 3.06,0 7.35,-3.674 7.35,-9.196 0,-17.793 -71.771,-93.876 -133.744,-93.876 -22.088,0 -37.423,10.421 -37.423,33.738 0,29.442 20.855,79.757 25.169,90.195 l 42.931,107.981 z" id="path24" style="fill:#ffffff;fill-opacity:1;fill-rule:evenodd;stroke:none"></path></g></g></g></g></svg>