<svg xmlns="http://www.w3.org/2000/svg" xmlns:svg="http://www.w3.org/2000/svg" height="640" id="svg2" version="1.1" width="640" xml:space="preserve"><defs id="defs6"><clipPath id="clipPath18"><path d="M 0,512 512,512 512,0 0,0 0,512 z" id="path20"></path></clipPath></defs><g id="g12" transform="matrix(1.25,0,0,-1.25,0,640)"><g id="g14"><g clip-path="url(#clipPath18)" id="g16"><g id="g22" transform="translate(416.6719,461.3599)"><path d="m 0,0 -229.469,-37.22 0.035,-275.978 c -12.004,4.206 -26.398,4.982 -41.04,1.32 -32.527,-8.135 -53.833,-34.966 -47.589,-59.924 6.247,-24.959 37.675,-38.595 70.212,-30.447 28.581,7.151 48.497,28.749 48.663,50.82 l 0.032,0.005 0,220.567 168.869,26.476 0,-170.579 c -12.172,4.319 -26.801,5.138 -41.692,1.415 -32.869,-8.226 -54.406,-35.34 -48.093,-60.556 6.314,-25.227 38.076,-39.003 70.951,-30.779 29.951,7.495 50.473,30.668 49.121,53.803 L 0,0 z" id="path24" style="fill:#ffffff;fill-opacity:1;fill-rule:nonzero;stroke:none"></path></g></g></g></g></svg>