<svg xmlns="http://www.w3.org/2000/svg" xmlns:svg="http://www.w3.org/2000/svg" height="640" id="svg2" version="1.1" width="640" xml:space="preserve"><defs id="defs6"></defs><g id="g12" transform="matrix(1.25,0,0,-1.25,0,640)"><path d="m 422.432,264.987 -254.75,0 0,-155.045 254.75,0 0,155.045 z m 26.095,-181.14 -306.94,0 0,207.236 306.94,0 0,-207.236 z m -333.066,206.8 -11.129,-4.717 11.129,-26.259 0,-66.866 -45.338,106.964 282.568,119.816 43.288,-102.133 -28.342,0 -28.787,67.919 -160.171,-67.919 -63.218,0 0,-26.805 z m 310.582,26.805 -60.901,138.194 -328.876,-144.883 79.195,-179.716 0,-73.243 359.41,0 0,259.648 -48.828,0 z" id="path14" style="fill:#ffffff;fill-opacity:1;fill-rule:nonzero;stroke:none"></path></g></svg>