<svg xmlns="http://www.w3.org/2000/svg" xmlns:svg="http://www.w3.org/2000/svg" height="640" id="svg2" version="1.1" width="640" xml:space="preserve"><defs id="defs6"></defs><g id="g12" transform="matrix(1.25,0,0,-1.25,0,640)"><g id="g14" transform="translate(382.9004,266.3076)"><path d="m 0,0 0,-45.043 -24.129,-23.981 -173.165,0 0,48.203 -89.522,-73.885 89.522,-73.889 0,48.207 194.346,0 54.311,53.979 L 51.363,0 0,0 z m -256.208,23.918 24.129,23.978 173.583,0 0,-48.205 89.52,73.887 -89.52,73.885 0,-48.207 -145.444,0.006 -49.319,0 -54.311,-53.979 0,-66.409 51.362,0 0,45.044 z" id="path16" style="fill:#ffffff;fill-opacity:1;fill-rule:nonzero;stroke:none"></path></g></g></svg>