<svg xmlns="http://www.w3.org/2000/svg" xmlns:svg="http://www.w3.org/2000/svg" height="640" id="svg2" version="1.1" width="640" xml:space="preserve"><defs id="defs6"><clipPath id="clipPath18"><path d="M 0,512 512,512 512,0 0,0 0,512 z" id="path20"></path></clipPath></defs><g id="g12" transform="matrix(1.25,0,0,-1.25,0,640)"><g id="g14"><g clip-path="url(#clipPath18)" id="g16"><g id="g22" transform="translate(389.9805,297.3828)"><path d="m 0,0 c -6.478,21.637 -18.254,42.029 -35.332,59.104 -2.448,2.449 -6.413,2.439 -8.854,0 -2.441,-2.452 -2.441,-6.416 0.006,-8.856 15.323,-15.316 25.928,-33.537 31.881,-52.89 -8.026,-4.086 -13.535,-12.401 -13.535,-22.026 0,-11.668 8.086,-21.416 18.95,-24.018 -1.909,-30.082 -14.304,-59.587 -37.302,-82.585 -25.081,-25.072 -57.894,-37.587 -90.762,-37.594 -32.869,0.007 -65.678,12.522 -90.756,37.594 -1.538,1.537 -3.028,3.107 -4.471,4.701 1.443,2.508 2.279,5.408 2.279,8.506 0,9.447 -7.656,17.106 -17.104,17.106 -1.043,0 -2.062,-0.11 -3.057,-0.289 -7.814,14.515 -12.615,30.198 -14.414,46.167 10.667,2.746 18.558,12.392 18.558,23.916 0,10.298 -6.298,19.119 -15.25,22.836 4.138,16.048 11.409,31.428 21.838,45.201 l 22.059,-22.062 c -11.46,-16.602 -17.229,-35.971 -17.224,-55.317 -0.006,-24.94 9.534,-49.938 28.573,-68.974 8.71,-8.711 18.679,-15.411 29.313,-20.139 -0.011,-0.306 -0.047,-0.608 -0.047,-0.92 0,-13.654 11.067,-24.718 24.721,-24.718 11.183,0 20.62,7.421 23.674,17.609 21.986,1.958 43.464,11.346 60.28,28.168 19.035,19.036 28.581,44.034 28.574,68.974 0.007,24.942 -9.539,49.949 -28.574,68.969 -2.444,2.442 -6.41,2.442 -8.853,0 -2.444,-2.445 -2.444,-6.409 0.007,-8.858 16.609,-16.605 24.89,-38.333 24.898,-60.111 -0.008,-21.777 -8.289,-43.502 -24.905,-60.119 -14.297,-14.293 -32.374,-22.407 -51.017,-24.4 -2.508,10.996 -12.327,19.21 -24.084,19.21 -8.884,0 -16.653,-4.704 -21.011,-11.741 -8.726,4.076 -16.906,9.715 -24.121,16.931 -16.617,16.623 -24.899,38.342 -24.905,60.119 0.006,16.153 4.576,32.273 13.712,46.307 l 45.47,-45.477 c 0,-0.082 -0.012,-0.164 -0.012,-0.244 0,-13.658 11.069,-24.723 24.722,-24.723 13.655,0 24.722,11.065 24.722,24.723 0,13.043 -10.111,23.705 -22.92,24.631 l -90.243,90.246 c -7.028,7.028 -18.422,7.028 -25.45,0 -7.021,-7.031 -7.021,-18.42 0,-25.445 l 3.719,-3.721 c -12.331,-15.877 -20.816,-33.766 -25.423,-52.436 -12.22,-1.496 -21.687,-11.892 -21.687,-24.519 0,-11.42 7.751,-21.002 18.272,-23.842 1.863,-18.291 7.348,-36.283 16.386,-52.853 -2.128,-2.847 -3.403,-6.373 -3.403,-10.205 0,-9.442 7.658,-17.102 17.102,-17.102 1.757,0 3.451,0.268 5.046,0.758 1.739,-1.938 3.53,-3.854 5.395,-5.719 27.486,-27.49 63.58,-41.26 99.611,-41.26 36.031,0 72.122,13.77 99.616,41.26 25.48,25.483 39.157,58.353 41.02,91.71 10.344,2.954 17.921,12.454 17.921,23.749 C 23.609,-11.389 13.134,-0.585 0,0 m -10.854,-164.598 c -34.32,-34.302 -79.121,-51.386 -124.091,-51.408 -44.975,0.022 -89.777,17.1 -124.09,51.408 -34.01,34.022 -51.386,78.254 -51.401,122.547 0.028,45.649 16.802,91.022 51.401,125.633 34.313,34.303 79.115,51.379 124.09,51.404 44.97,-0.025 89.777,-17.101 124.091,-51.404 34.301,-34.305 51.379,-79.112 51.4,-124.088 -0.021,-44.973 -17.099,-89.778 -51.4,-124.092 M 14.59,109.025 c -41.244,41.266 -95.477,61.967 -149.535,61.95 -54.064,0.017 -108.296,-20.684 -149.54,-61.95 -41.744,-41.73 -61.961,-96.664 -61.934,-151.076 -0.013,-53.703 21.163,-107.231 61.934,-147.995 41.251,-41.26 95.476,-61.964 149.54,-61.944 l 0.08,0 c 54.031,0 108.23,20.704 149.455,61.944 41.264,41.249 61.967,95.476 61.947,149.54 0.02,54.063 -20.683,108.295 -61.947,149.531" id="path24" style="fill:#ffffff;fill-opacity:1;fill-rule:nonzero;stroke:none"></path></g></g></g></g></svg>