<svg xmlns="http://www.w3.org/2000/svg" xmlns:svg="http://www.w3.org/2000/svg" height="640" id="svg2" version="1.1" width="640" xml:space="preserve"><defs id="defs6"><clipPath id="clipPath18"><path d="M 0,512 512,512 512,0 0,0 0,512 z" id="path20"></path></clipPath></defs><g id="g12" transform="matrix(1.25,0,0,-1.25,0,640)"><g id="g14"><g clip-path="url(#clipPath18)" id="g16"><g id="g22" transform="translate(277.9414,164.4756)"><path d="M 0,0 -17.707,17.71 56.753,92.162 74.459,74.457 0,0 z M -41.15,41.157 -58.863,58.865 15.596,133.317 33.303,115.608 -41.15,41.157 z m 140.599,48.429 -13.323,13.323 -75.729,75.735 -94.496,-94.5 -10.628,10.625 c 7.039,7.046 10.528,16.202 10.536,25.429 -0.008,9.228 -3.497,18.393 -10.536,25.428 -7.043,7.043 -16.205,10.527 -25.427,10.537 -9.233,-0.01 -18.391,-3.494 -25.432,-10.537 -7.037,-7.041 -10.522,-16.2 -10.53,-25.428 0.008,-9.227 3.493,-18.383 10.538,-25.429 l 111.785,-111.787 13.316,-13.317 c 9.94,-9.938 14.942,-23.031 14.934,-36.049 0,-0.174 -0.023,-0.342 -0.025,-0.512 L 99.449,38.119 c 7.113,7.131 10.649,16.397 10.655,25.743 -0.006,9.329 -3.535,18.6 -10.655,25.724 m -168.609,30.748 96.43,96.434 8.251,8.243 c 7.034,7.047 10.526,16.203 10.534,25.433 -0.008,9.226 -3.5,18.381 -10.534,25.424 -7.044,7.041 -16.203,10.531 -25.428,10.537 -9.229,-0.006 -18.394,-3.498 -25.423,-10.527 L -119.547,171.187 c 12.821,-0.146 25.661,-5.146 35.443,-14.93 9.905,-9.901 14.913,-22.942 14.944,-35.923 m 24.738,-147.968 -12.11,12.106 -25.437,-25.428 c -7.037,-7.037 -10.521,-16.193 -10.529,-25.438 0.008,-9.222 3.502,-18.384 10.535,-25.428 7.029,-7.018 16.179,-10.518 25.386,-10.524 9.248,0.006 18.427,3.483 25.47,10.524 7.033,7.044 10.527,16.206 10.535,25.438 -0.008,9.227 -3.492,18.385 -10.53,25.428 l -13.32,13.322 z" id="path24" style="fill:#ffffff;fill-opacity:1;fill-rule:nonzero;stroke:none"></path></g></g></g></g></svg>