<svg xmlns="http://www.w3.org/2000/svg" xmlns:svg="http://www.w3.org/2000/svg" height="640" id="svg2" version="1.1" width="640" xml:space="preserve"><defs id="defs6"><clipPath id="clipPath18"><path d="M 0,512 512,512 512,0 0,0 0,512 z" id="path20"></path></clipPath></defs><g id="g12" transform="matrix(1.25,0,0,-1.25,0,640)"><g id="g14"><g clip-path="url(#clipPath18)" id="g16"><g id="g22" transform="translate(206.748,171.2295)"><path d="m 0,0 c -72.589,0.466 -131.271,59.907 -130.813,132.502 0.465,72.128 59.515,130.811 131.626,130.815 l 0.879,-0.002 c 35.167,-0.22 68.144,-14.123 92.851,-39.148 24.705,-25.025 38.188,-58.178 37.962,-93.352 C 132.283,95.8 118.478,62.923 93.638,38.251 68.804,13.581 35.857,-0.001 0.87,-0.001 L 0,0 z m 263.956,-67.136 -2.691,2.69 0.006,0.002 -107.514,107.522 c 14.937,25.734 23.616,55.565 23.82,87.451 0.626,97.615 -77.99,177.243 -175.598,177.857 -0.394,10e-4 -0.776,0.002 -1.168,0.002 C -96.25,308.383 -175.257,229.997 -175.882,132.79 -176.5,35.181 -97.883,-44.446 -0.285,-45.069 c 0.389,-0.002 0.765,-0.004 1.155,-0.004 32.443,0 62.846,8.79 88.998,24.075 l 107.419,-107.432 0.01,0.01 2.685,-2.685 c 8.125,-8.124 21.293,-8.118 29.414,0 l 34.56,34.553 c 8.116,8.117 8.122,21.293 0,29.416" id="path24" style="fill:#ffffff;fill-opacity:1;fill-rule:nonzero;stroke:none"></path></g></g></g></g></svg>