<?xml version="1.0" encoding="UTF-8" standalone="no"?>
<!-- Created with Inkscape (http://www.inkscape.org/) -->

<svg
   xmlns:dc="http://purl.org/dc/elements/1.1/"
   xmlns:cc="http://creativecommons.org/ns#"
   xmlns:rdf="http://www.w3.org/1999/02/22-rdf-syntax-ns#"
   xmlns:svg="http://www.w3.org/2000/svg"
   xmlns="http://www.w3.org/2000/svg"
   version="1.1"
   width="64"
   height="64"
   id="svg2985">
  <defs
     id="defs2987" />
  <metadata
     id="metadata2990">
    <rdf:RDF>
      <cc:Work
         rdf:about="">
        <dc:format>image/svg+xml</dc:format>
        <dc:type
           rdf:resource="http://purl.org/dc/dcmitype/StillImage" />
        <dc:title></dc:title>
      </cc:Work>
    </rdf:RDF>
  </metadata>
  <g
     id="layer1">
    <path
       d="m 2.375,21.71875 0,20.5625 7.125,0 0,-20.5625 -7.125,0 z m 14.1875,0 0,20.5625 31.25,0 0,-20.5625 -31.25,0 z m 38.34375,0 0,20.5625 6.71875,0 0,-20.5625 -6.71875,0 z M 5,24.90625 l 3.28125,0 0,3.09375 L 5,28 5,24.90625 z m 12.78125,0 3.28125,0 0,3.09375 -3.28125,0 0,-3.09375 z m 25.5625,0 3.25,0 0,3.09375 -3.25,0 0,-3.09375 z m 12.75,0 3.28125,0 0,3.09375 -3.28125,0 0,-3.09375 z M 5,30.46875 l 3.28125,0 0,3.0625 -3.28125,0 0,-3.0625 z m 12.78125,0 3.28125,0 0,3.0625 -3.28125,0 0,-3.0625 z m 25.5625,0 3.25,0 0,3.0625 -3.25,0 0,-3.0625 z m 12.75,0 3.28125,0 0,3.0625 -3.28125,0 0,-3.0625 z M 5,36 l 3.28125,0 0,3.09375 L 5,39.09375 5,36 z m 12.78125,0 3.28125,0 0,3.09375 -3.28125,0 0,-3.09375 z m 25.5625,0 3.25,0 0,3.09375 -3.25,0 0,-3.09375 z m 12.75,0 3.28125,0 0,3.09375 -3.28125,0 0,-3.09375 z"
       id="rect2993"
       style="fill:#ffffff;fill-opacity:1" />
  </g>
</svg>
