<svg xmlns="http://www.w3.org/2000/svg" xmlns:svg="http://www.w3.org/2000/svg" height="640" id="svg2" version="1.1" width="640" xml:space="preserve"><defs id="defs6"><clipPath id="clipPath18"><path d="M 0,512 512,512 512,0 0,0 0,512 z" id="path20"></path></clipPath></defs><g id="g12" transform="matrix(1.25,0,0,-1.25,0,640)"><g id="g14"><g clip-path="url(#clipPath18)" id="g16"><g id="g22" transform="translate(255.0542,187.2197)"><path d="m 0,0 c -37.819,0 -68.478,30.657 -68.478,68.479 0,37.819 30.659,68.481 68.478,68.481 37.819,0 68.475,-30.662 68.475,-68.481 C 68.475,30.657 37.819,0 0,0 m 214.866,45.063 0,48.899 -6.907,2.256 -52.349,17.091 -13.971,33.728 26.852,56.814 -34.586,34.58 -6.477,-3.288 -49.099,-24.937 -33.721,13.971 -21.198,59.171 -48.9,0 -2.253,-6.912 -17.09,-52.353 -33.713,-13.966 -56.833,26.849 -34.573,-34.58 3.286,-6.474 24.934,-49.116 -13.96,-33.706 -59.182,-21.189 0,-48.909 6.914,-2.253 52.352,-17.093 13.966,-33.718 -26.845,-56.821 34.568,-34.586 6.484,3.293 49.102,24.931 33.719,-13.968 21.189,-59.165 48.902,0 2.26,6.909 17.094,52.349 33.72,13.967 56.819,-26.856 34.584,34.59 -3.287,6.481 -24.936,49.094 13.969,33.725 59.166,21.192 z" id="path24" style="fill:#ffffff;fill-opacity:1;fill-rule:nonzero;stroke:none"></path></g></g></g></g></svg>