<svg xmlns="http://www.w3.org/2000/svg" xmlns:svg="http://www.w3.org/2000/svg" height="640" id="svg2" version="1.1" width="640" xml:space="preserve"><defs id="defs6"><clipPath id="clipPath18"><path d="M 0,512 512,512 512,0 0,0 0,512 z" id="path20"></path></clipPath></defs><g id="g12" transform="matrix(1.25,0,0,-1.25,0,640)"><g id="g14"><g clip-path="url(#clipPath18)" id="g16"><g id="g22" transform="translate(378.5938,403.4121)"><path d="m 0,0 -51.951,0 0,-52.247 12.021,0 c -0.586,-19.484 -2.632,-33.068 -6.7,-43.055 -4.973,-12.14 -12.647,-20.826 -28.882,-31.933 -11.669,-7.909 -22.107,-16.011 -30.842,-25.602 l 0,169.325 18.431,0 -32.198,55.291 -32.194,-55.291 18.421,0 0,-225.767 c -8.656,9.415 -18.972,17.394 -30.481,25.186 -16.23,11.108 -23.908,19.794 -28.882,31.934 -4.532,11.117 -6.543,26.706 -6.831,49.912 10.486,5.126 17.726,15.868 17.726,28.325 0,17.42 -14.119,31.541 -31.542,31.541 -17.417,0 -31.542,-14.121 -31.542,-31.541 0,-12.494 7.285,-23.263 17.823,-28.368 0.313,-24.652 2.197,-43.483 8.81,-60.126 7.242,-18.289 20.469,-32.06 38.997,-44.481 16.771,-11.354 27.845,-21.157 35.007,-33.615 4.676,-8.122 8.046,-17.934 9.838,-31.074 -20.537,-5.645 -35.647,-24.394 -35.647,-46.722 0,-26.792 21.719,-48.502 48.507,-48.502 26.777,0 48.496,21.71 48.496,48.502 0,21.261 -13.703,39.28 -32.739,45.828 l 0,36.443 c 0.299,24.722 4.375,40.381 11.278,52.387 7.169,12.445 18.232,22.251 35.012,33.609 18.518,12.419 31.749,26.187 38.995,44.478 5.988,15.081 8.094,31.948 8.676,53.316 L 0,-52.247 0,0 z" id="path24" style="fill:#ffffff;fill-opacity:1;fill-rule:nonzero;stroke:none"></path></g></g></g></g></svg>