<svg xmlns="http://www.w3.org/2000/svg" xmlns:svg="http://www.w3.org/2000/svg" height="640" id="svg2" version="1.1" width="640" xml:space="preserve"><defs id="defs6"><clipPath id="clipPath18"><path d="M 0,512 512,512 512,0 0,0 0,512 z" id="path20"></path></clipPath></defs><g id="g12" transform="matrix(1.25,0,0,-1.25,0,640)"><g id="g14"><g clip-path="url(#clipPath18)" id="g16"><path d="m 267.336,38.397 167.264,0 0,186.06 -167.264,0 0,-186.06 z m 26.496,368.988 c 7.439,10.654 16.19,19.613 25.238,25.626 9.096,6.037 18.214,9.133 27.368,9.14 l 0.095,0 c 7.671,0 14.943,-2.942 19.958,-7.364 5.059,-4.501 7.669,-9.887 7.683,-15.664 -0.044,-6.852 -3.641,-16.84 -19.615,-28.524 -15.213,-11.04 -41.457,-22.377 -81.95,-30.297 3.882,16.083 11.326,33.081 21.223,47.083 m -140.94,-21.767 c -8.311,5.219 -13.364,10.498 -16.311,15.179 -2.93,4.716 -3.94,8.843 -3.965,12.873 -0.044,6.749 3.331,13.948 9.257,19.548 5.83,5.552 13.754,8.933 20.889,8.933 l 0.179,0 c 9.153,-0.007 18.272,-3.103 27.365,-9.14 13.593,-8.983 26.413,-24.746 35.363,-42.625 4.572,-9.032 8.145,-18.585 10.553,-27.9 -41.212,4.265 -67.922,13.38 -83.33,23.132 m 299.112,-31.28 -98.111,0 c 6.962,3.576 13.173,7.346 18.678,11.301 21.24,15.159 32.416,34.379 32.378,53.484 0.012,15.646 -7.431,29.458 -18.176,38.812 -10.775,9.414 -25.022,14.967 -40.335,14.99 -16.319,0.009 -31.459,-5.64 -44.43,-14.298 -19.507,-13.075 -34.858,-32.779 -45.791,-54.4 -0.525,-1.051 -1.031,-2.107 -1.536,-3.164 -4.003,8.333 -8.658,16.398 -13.919,23.972 -9.249,13.191 -20.371,24.897 -33.392,33.592 -12.974,8.662 -28.115,14.304 -44.429,14.298 -16.225,-0.057 -31.074,-6.869 -42.201,-17.332 -11.077,-10.467 -18.858,-25.202 -18.901,-41.923 -0.029,-9.776 2.828,-19.986 8.691,-29.262 7.371,-11.669 19.049,-21.777 35.218,-30.07 l -88.117,0 c -11.746,0 -21.273,-9.523 -21.273,-21.274 l 0,-78.88 205.937,0 0,100.154 25.041,0 0,-100.154 205.941,0 0,78.88 c 0,11.751 -9.527,21.274 -21.273,21.274 M 75.032,38.397 l 167.263,0 0,186.06 -167.263,0 0,-186.06 z" id="path22" style="fill:#ffffff;fill-opacity:1;fill-rule:nonzero;stroke:none"></path></g></g></g></svg>