<svg xmlns="http://www.w3.org/2000/svg" xmlns:svg="http://www.w3.org/2000/svg" height="640" id="svg2" version="1.1" width="640" xml:space="preserve"><defs id="defs6"><clipPath id="clipPath18"><path d="M 0,512 512,512 512,0 0,0 0,512 z" id="path20"></path></clipPath></defs><g id="g12" transform="matrix(1.25,0,0,-1.25,0,640)"><g id="g14"><g clip-path="url(#clipPath18)" id="g16"><g id="g22" transform="translate(291.9209,223.96)"><path d="m 0,0 13.383,-17.569 1.718,-2.405 c 0.015,0.013 0.043,0.029 0.074,0.049 1.513,1.022 19.111,12.932 53.888,12.953 18.981,0 33.072,-3.558 42.302,-6.976 4.613,-1.705 8.002,-3.375 10.148,-4.559 1.073,-0.588 1.834,-1.056 2.275,-1.334 0.21,-0.137 0.351,-0.234 0.416,-0.278 0.007,-0.006 0.012,-0.008 0.018,-0.01 l 0.027,-0.023 4.049,5.749 10.589,14.567 C 137.409,1.273 113.412,18.085 69.063,18.071 24.707,18.093 1.542,1.223 0,0 m 15.101,34.173 c 0.828,0.553 18.425,12.984 53.965,13.006 18.978,-0.01 33.074,-3.57 42.299,-6.981 4.618,-1.698 8.009,-3.383 10.151,-4.561 1.07,-0.587 1.829,-1.053 2.269,-1.331 0.191,-0.119 0.32,-0.211 0.396,-0.26 0.035,-0.027 0.058,-0.047 0.064,-0.047 l 3.984,5.646 10.657,14.659 0,0.009 C 137.409,55.42 113.415,72.23 69.066,72.215 24.71,72.246 1.539,55.361 0,54.143 l 15.177,-19.914 -1.829,2.393 1.753,-2.449 z m -1.753,56.596 1.755,-2.45 10e-4,-0.004 c 0.821,0.554 18.426,12.987 53.962,13.008 18.978,0 33.074,-3.563 42.302,-6.974 4.611,-1.705 8,-3.385 10.145,-4.559 1.07,-0.597 1.834,-1.063 2.273,-1.344 0.175,-0.101 0.299,-0.189 0.377,-0.24 l 14.723,20.251 c -1.481,1.102 -25.471,17.917 -69.82,17.909 C 24.71,126.39 1.54,109.511 -0.003,108.285 l 15.178,-19.911 -1.827,2.395 z m 110.897,-2.628 4.149,5.883 -4.231,-5.818 -0.002,-0.004 c 0.049,-0.036 0.078,-0.056 0.084,-0.061 M -208.116,0 l 13.848,-18.179 -0.497,0.645 1.749,-2.44 0.078,0.049 c 1.509,1.022 19.11,12.932 53.885,12.953 18.981,0 33.074,-3.558 42.303,-6.976 4.612,-1.705 8.001,-3.375 10.147,-4.559 1.073,-0.588 1.833,-1.056 2.274,-1.334 0.212,-0.137 0.351,-0.234 0.42,-0.278 0.006,-0.006 0.012,-0.008 0.017,-0.01 l 0.025,-0.023 4.05,5.749 10.59,14.567 C -70.714,1.273 -94.704,18.085 -139.053,18.071 -183.408,18.093 -206.574,1.223 -208.116,0 m 15.102,34.173 c 0.823,0.553 18.425,12.984 53.958,13.006 18.98,-0.01 33.079,-3.57 42.307,-6.981 4.61,-1.698 8,-3.383 10.142,-4.561 1.079,-0.587 1.837,-1.053 2.276,-1.331 0.221,-0.143 0.363,-0.241 0.427,-0.285 0.02,-0.014 0.031,-0.022 0.034,-0.022 l 3.927,5.572 10.713,14.733 0,0.009 c -1.483,1.107 -25.476,17.917 -69.826,17.902 -44.349,0.031 -67.52,-16.854 -69.059,-18.072 l 15.177,-19.914 -1.836,2.403 1.76,-2.459 z m -15.101,74.112 13.358,-17.522 1.741,-2.448 c 0.829,0.554 18.427,12.987 53.962,13.008 18.98,0 33.073,-3.563 42.304,-6.974 4.616,-1.705 8.006,-3.385 10.144,-4.559 1.076,-0.597 1.832,-1.063 2.279,-1.344 0.212,-0.131 0.349,-0.226 0.418,-0.272 0.006,-0.008 0.012,-0.01 0.017,-0.014 l 0.025,-0.019 4.009,5.694 10.631,14.622 c -1.481,1.102 -25.478,17.917 -69.827,17.909 -44.348,0.024 -67.525,-16.855 -69.061,-18.081 M 153.323,-82.207 c -19.319,17.042 -48.98,34.57 -87.913,34.57 -38.285,0.012 -67.3,-17.008 -86.266,-33.843 l 0,205.372 c 3.306,5.062 10.636,15.212 21.669,24.918 15.162,13.308 36.324,25.544 64.597,25.555 29.173,0 51.355,-13.112 67.003,-26.968 7.748,-6.893 13.678,-13.876 17.572,-19.036 1.364,-1.796 2.478,-3.372 3.338,-4.639 l 0,-205.929 z m -206.732,-0.02 c -19.32,17.049 -48.97,34.59 -87.915,34.59 l -0.046,0 c -38.249,0 -67.272,-16.998 -86.226,-33.819 l 0,205.35 c 3.309,5.068 10.651,15.226 21.667,24.916 15.169,13.308 36.331,25.544 64.605,25.555 29.174,0 51.356,-13.112 66.994,-26.968 7.757,-6.893 13.685,-13.876 17.58,-19.036 1.372,-1.811 2.475,-3.382 3.341,-4.653 l 0,-205.935 z m 237.134,218.773 c -0.583,0.969 -10.253,17.847 -29.679,35.168 -19.301,17.234 -49.217,35.208 -88.636,35.208 -39.42,0.012 -69.042,-18.03 -87.956,-35.339 -5.852,-5.346 -10.781,-10.649 -14.817,-15.455 -4.176,4.837 -9.279,10.189 -15.326,15.586 -19.301,17.234 -49.216,35.208 -88.635,35.208 -39.419,0.012 -69.049,-18.03 -87.957,-35.339 -19.041,-17.393 -28.303,-34.318 -28.874,-35.324 l -1.99,-7.797 0,-254.555 30.499,-7.786 0.052,-0.032 c 0.427,0.815 8.618,14.93 23.665,28.164 15.169,13.297 36.331,25.534 64.605,25.555 29.174,0 51.356,-13.121 66.994,-26.967 7.757,-6.904 13.685,-13.877 17.58,-19.039 1.948,-2.573 3.39,-4.692 4.309,-6.108 0.393,-0.597 0.669,-1.039 0.872,-1.367 2.713,-5.213 8.152,-8.777 14.432,-8.777 6.397,0 11.915,3.699 14.575,9.062 1.596,2.721 9.608,15.532 23.375,27.641 15.162,13.297 36.324,25.534 64.597,25.555 29.173,0 51.355,-13.121 67.003,-26.967 7.748,-6.904 13.678,-13.877 17.572,-19.039 1.954,-2.573 3.395,-4.692 4.317,-6.108 0.455,-0.701 0.785,-1.24 0.984,-1.561 0.1,-0.163 0.162,-0.267 0.193,-0.326 l 0.043,0.023 30.358,8.077 0,254.555 -2.155,8.084 z" id="path24" style="fill:#ffffff;fill-opacity:1;fill-rule:nonzero;stroke:none"></path></g></g></g></g></svg>