<svg xmlns="http://www.w3.org/2000/svg" xmlns:svg="http://www.w3.org/2000/svg" height="640" id="svg2" version="1.1" width="640" xml:space="preserve"><defs id="defs6"><clipPath id="clipPath18"><path d="M 0,512 512,512 512,0 0,0 0,512 z" id="path20"></path></clipPath></defs><g id="g12" transform="matrix(1.25,0,0,-1.25,0,640)"><g id="g14"><g clip-path="url(#clipPath18)" id="g16"><g id="g22" transform="translate(470.6367,111.3232)"><path d="m 0,0 -431.536,0 -1.047,-2.036 c 0,-5.542 4.493,-15.041 10.03,-15.041 l 413.566,0 c 5.541,0 10.033,9.499 10.033,15.041 L 0,0 z m -64.563,94.019 -302.41,0 0,188.428 302.41,0 0,-188.428 z m 25.04,-16.956 c 0,0.334 -0.067,0.651 -0.1,0.975 0.033,0.33 0.1,0.645 0.1,0.973 l 0,218.443 c 0,5.539 -4.492,10.028 -10.034,10.028 l -332.426,0 c -5.539,0 -10.03,-4.489 -10.03,-10.028 l 0,-218.443 c 0,-0.328 0.068,-0.643 0.099,-0.973 -0.031,-0.324 -0.099,-0.641 -0.099,-0.975 l -0.085,-0.162 352.659,0 -0.084,0.162 z m -221.941,-52.339 11.253,21.394 69.995,0 10.146,-21.394 -91.394,0 z m 228.202,40.132 -365.012,0 -27.084,-52.806 419.179,0 -27.083,52.806 z" id="path24" style="fill:#ffffff;fill-opacity:1;fill-rule:nonzero;stroke:none"></path></g></g></g></g></svg>