<svg xmlns="http://www.w3.org/2000/svg" xmlns:svg="http://www.w3.org/2000/svg" height="640" id="svg2" version="1.1" width="640" xml:space="preserve"><defs id="defs6"><clipPath id="clipPath18"><path d="M 0,512 512,512 512,0 0,0 0,512 z" id="path20"></path></clipPath></defs><g id="g12" transform="matrix(1.25,0,0,-1.25,0,640)"><g id="g14"><g clip-path="url(#clipPath18)" id="g16"><path d="m 441.182,179.704 -375.014,0 0,234.314 375.014,0 0,-234.314 z m 17.662,264.363 -410.342,0 c -6.839,0 -12.382,-5.546 -12.382,-12.383 l 0,-269.639 c 0,-6.84 5.543,-12.388 12.382,-12.388 l 410.342,0 c 6.842,0 12.385,5.548 12.385,12.388 l 0,269.639 c 0,6.837 -5.543,12.383 -12.385,12.383 M 307.748,116.049 c -0.893,4 -1.519,7.931 -1.982,11.646 l -104.183,0 c -0.933,-7.469 -2.595,-15.908 -5.507,-23.7 -2.911,-7.846 -7.047,-14.971 -12.662,-19.989 -5.64,-5.007 -12.645,-8.146 -22.442,-8.18 l 0,-9.323 185.397,0 0,9.323 c -9.799,0.034 -16.805,3.173 -22.447,8.186 -8.434,7.496 -13.491,19.881 -16.174,32.037" id="path22" style="fill:#ffffff;fill-opacity:1;fill-rule:nonzero;stroke:none"></path></g></g></g></svg>