<svg xmlns="http://www.w3.org/2000/svg" xmlns:svg="http://www.w3.org/2000/svg" height="640" id="svg2" version="1.1" width="640" xml:space="preserve"><defs id="defs6"><clipPath id="clipPath18"><path d="M 0,512 512,512 512,0 0,0 0,512 z" id="path20"></path></clipPath></defs><g id="g12" transform="matrix(1.25,0,0,-1.25,0,640)"><g id="g14"><g clip-path="url(#clipPath18)" id="g16"><g id="g22" transform="translate(326.7324,231.1299)"><path d="M 0,0 C 12.389,0 22.437,10.046 22.437,22.432 22.437,34.823 12.389,44.869 0,44.869 -12.391,44.869 -22.434,34.823 -22.434,22.432 -22.434,10.046 -12.391,0 0,0 m -72.109,44.869 c -12.392,0 -22.435,-10.046 -22.435,-22.437 C -94.544,10.046 -84.501,0 -72.109,0 c 12.389,0 22.433,10.046 22.433,22.432 0,12.391 -10.044,22.437 -22.433,22.437 m -94.549,-22.437 c 0,-12.386 10.047,-22.432 22.435,-22.432 12.391,0 22.436,10.046 22.436,22.432 0,12.391 -10.045,22.437 -22.436,22.437 -12.388,0 -22.435,-10.046 -22.435,-22.437 M 33.16,137.483 14.722,155.916 -20.685,120.505 -2.254,102.067 75.469,24.357 -20.685,-71.796 14.722,-107.212 146.288,24.357 33.16,137.483 z m -250.854,-113.126 96.157,96.15 -35.409,35.403 -131.562,-131.553 131.562,-131.565 35.413,35.406 -0.004,0.006 -96.157,96.153 z" id="path24" style="fill:#ffffff;fill-opacity:1;fill-rule:nonzero;stroke:none"></path></g></g></g></g></svg>