<svg xmlns="http://www.w3.org/2000/svg" xmlns:svg="http://www.w3.org/2000/svg" height="640" id="svg2" version="1.1" width="640" xml:space="preserve"><defs id="defs6"><clipPath id="clipPath18"><path d="M 0,512 512,512 512,0 0,0 0,512 z" id="path20"></path></clipPath></defs><g id="g12" transform="matrix(1.25,0,0,-1.25,0,640)"><g id="g14"><g clip-path="url(#clipPath18)" id="g16"><g id="g22" transform="translate(431.7197,212.1699)"><path d="m 0,0 c -3.75,3.26 -8.175,7.627 -10.841,11.848 -2.848,4.499 -1.093,9.129 -0.886,14.282 0.174,4.335 -1.943,10.503 -0.1,14.405 0.845,1.781 2.784,2.371 3.581,3.832 1.696,3.091 1.319,5.179 3.401,7.837 2.233,2.855 5.235,3.556 7.721,5.794 2.605,2.348 2.533,4.198 4.183,7.206 1.206,2.197 4.043,5.864 6.728,7.78 1.456,-9.545 2.216,-19.318 2.216,-29.263 C 16.003,26.516 13.714,9.84 9.474,-6.05 5.859,-5.116 2.886,-2.512 0,0 m -2.498,100.108 c 0.359,0.767 1.198,1.02 1.546,1.654 0.728,1.331 0.566,2.234 1.465,3.377 0.962,1.233 2.258,1.536 3.331,2.5 0.432,0.389 0.674,0.748 0.873,1.115 3.22,-8.989 5.787,-18.28 7.654,-27.822 -0.057,-0.068 -0.089,-0.171 -0.159,-0.229 -0.469,-0.37 -3.529,-0.826 -4.157,-0.847 -2.217,-0.086 -3.863,1.385 -5.453,2.769 -1.619,1.406 -3.525,3.288 -4.675,5.108 -1.229,1.944 -0.47,3.94 -0.382,6.162 0.073,1.869 -0.835,4.53 -0.043,6.213 m -35.336,76.655 c -7.522,-0.225 -12.76,-0.241 -18.805,-4.412 -2.434,-1.682 -4.087,-3.913 -7.177,-4.781 -2.772,-0.778 -5.763,-0.096 -8.512,-1.028 -9.921,-3.366 -8.348,-24.613 -21.42,-21.405 -6.141,1.507 -10.467,8.763 -13.558,13.5 -2.721,4.169 -7.679,7.617 -4.33,12.833 -1.527,-0.392 -3.157,0.055 -4.66,-0.232 2.095,4.601 9.116,4.197 10.284,6.547 2.91,5.89 -8.009,6.506 -11.102,7.321 3.726,3.974 5.614,-1.335 9.293,-0.433 3.536,0.869 -1.867,5.526 -3.987,6.048 -0.761,0.189 -13.212,-3.44 -6.005,3.009 -8.896,5.67 -17.789,11.34 -26.686,17.014 -1.498,-6.309 11.84,-9.894 16.196,-12.119 -0.676,-2.604 -4.728,-6.399 -7.832,-5.287 -2.922,1.047 -1.735,5.891 -6.148,5.405 -3.152,-7.327 6.662,-5.185 7.573,-9.675 1.037,-5.114 -3.709,-2.948 -5.534,-2.858 -0.435,0.021 -3.836,3.543 -4.021,0.877 -0.22,-3.164 5.427,-1.931 5.825,-5.127 -6.577,-0.266 -9.936,2.109 -15.289,5.665 -6.249,4.147 -9.456,3.772 -17.111,3.772 2.29,0.941 5.444,1.639 7.402,3.153 1.069,0.827 5.265,4.906 5.542,5.818 1.186,3.927 -0.064,3.631 -3.824,6.205 -3.341,2.286 -7.393,6.39 -11.443,7.199 -14.671,2.93 -4.525,-13.247 -15.662,-15.477 0.19,-0.009 0.397,-0.019 0.561,-0.019 l -0.637,0 c 0.027,0.003 0.05,0.013 0.076,0.019 -2.576,0.093 -7.404,0.72 -9.065,-0.64 -1.172,-0.958 -1.27,-4.802 -2.58,-6.193 -2.331,-2.484 -5.806,-2.982 -8.588,-4.774 -2.715,-1.749 -8.702,-6.241 -10.296,-9.288 -5.878,-11.23 13.242,-14.715 20.49,-17.996 3.275,-1.484 12.845,-3.514 14.629,-5.992 2.39,-3.329 -2.061,-6.449 2.931,-8.788 1.594,-0.745 4.883,-0.896 6.256,0.648 2.232,2.513 -0.907,3.082 -1.441,5.986 -1.035,5.593 0.67,3.371 3.482,5.448 5.733,4.232 4.442,4.49 2.38,11.235 -0.959,3.14 -4.57,11.9 -1.394,14.217 4.145,3.026 12.982,-1.637 16.16,-2.027 3.698,-0.454 5.797,-5.577 7.812,-7.673 1.339,-1.39 3.733,-4.344 6.071,-4.023 3.712,0.507 2.159,3.752 4.311,5.248 5.775,4.007 7.296,-1.434 9.598,-6.877 2.165,-5.11 4.214,-7.007 8.067,-10.285 1.79,-1.527 9.634,-6.975 8.894,-10.331 -0.502,-2.262 -9.462,-5.691 -11.858,-6.452 -8.759,-2.772 -25.187,4.542 -26.952,-9.347 3.397,1.267 13.063,9.162 15.962,5.42 1.322,-1.699 -1.048,-4.172 -0.49,-5.858 1.653,-5.056 5.552,-3.295 9.64,-2.477 -0.277,-0.174 -0.564,-0.326 -0.865,-0.46 5.586,2.871 5.006,2.271 7.568,6.929 0.837,1.52 2.083,5.202 3.262,6.291 4.062,3.736 4.687,1.164 7.201,-1.719 0.66,-0.759 6.879,-9.715 4.665,-9.269 -7.234,1.452 -14.18,1.257 -20.18,-2.698 -3.457,-2.283 -6.727,-5.364 -10.856,-6.882 -0.989,-0.361 -8.317,-1.056 -7.451,0.195 1.264,1.821 5.617,3.029 7.334,4.993 -4.759,1.96 -8.729,-2.366 -12.47,-4.898 -3.968,-1.877 -4.891,-5.376 -8.27,-8.444 -1.476,-1.338 -4.265,-1.564 -5.713,-3.326 -1.406,-1.707 -1.581,-4.393 -2.912,-6.016 -0.934,-1.134 -3.328,-0.447 -4.303,-2.159 -1.27,-2.237 1.162,-4.311 0.629,-5.924 -0.976,-2.926 -6.543,-5.408 -8.684,-7.515 0.287,0.275 0.571,0.557 0.85,0.843 -2.145,-2.249 -4.86,-3.905 -6.535,-6.51 0.769,-3.678 3.193,-12.447 2.517,-14.465 -2.23,-6.64 -6.564,3.61 -8.322,6.258 -6.039,9.1 -18.108,3.009 -26.353,2.256 -10.544,-0.965 -20.872,-14.65 -14.369,-25.759 3.123,-5.328 8.375,-7.388 14.4,-6.155 5.361,1.097 6.972,8.599 12.02,8.734 9.28,0.248 0.205,-9.092 -0.597,-12.519 -0.742,-3.175 1.157,-3.47 4.425,-4.255 2.414,-0.578 5.832,1.031 7.923,-0.347 1.319,-0.87 1.255,-5.634 3.069,-4.131 -3.57,-2.958 -2.737,-9.971 0.923,-12.508 4.057,-2.813 8.835,-0.207 13.082,-1.288 8.018,-2.046 4.19,0.61 11.232,4.862 4.753,2.865 5.533,-0.54 8.781,-0.552 2.211,-0.009 3.617,3.179 7.313,2.249 3.013,-0.758 4.204,-3.084 7.802,-3.619 1.474,-0.217 2.998,0.554 4.404,0.399 6.654,-0.738 11.748,-4.991 16.992,-8.835 4.321,-3.164 7.184,-2.523 12.231,-3.966 3.688,-1.051 10.492,-6.387 10.143,-11.073 -0.062,-0.837 -3.285,-5.052 -3.836,-6.949 0.944,-0.655 7.507,0.813 9.427,0.952 -0.631,-0.735 -5.101,-3.876 -5.101,-2.209 0,-0.852 3.163,-2.608 3.933,-3.155 2.331,7.569 6.16,2.699 10.768,0.824 3.917,-1.594 8.74,-1.68 12.918,-2.676 3.548,-0.845 11.371,-3.24 13.999,-6.138 3.165,-3.489 0.976,-9.157 -1.365,-12.63 -3.062,-4.551 -7.679,-6.3 -9.59,-11.653 -1.509,-4.245 -0.376,-8.532 -1.239,-13.237 -1.166,-6.367 -2.1,-4.135 -6.201,-8.021 -3.451,-3.271 -0.058,-2.702 -4.756,-4.787 -4.72,-2.099 -8.874,-1.474 -12.141,-6.651 0.13,0.325 0.237,0.653 0.328,0.992 -1.378,-1.928 -2.069,-5.88 -2.721,-7.175 -1.648,-3.308 -3.919,-5.395 -6.524,-8.151 -0.999,-1.054 -10.178,-13.593 -10.708,-12.586 -0.682,1.31 -7.918,-1.316 -8.264,0.553 0.288,-1.57 -0.069,-1.044 1.729,-1.95 -1.665,-10.305 -6.023,-11.841 -16.143,-11.946 0.87,-4.954 -3.667,-3.964 -5.776,-6.628 -1.232,-1.556 -1.821,-5.927 -2.675,-7.942 -0.534,-1.263 -4.485,-6.331 -4.485,-7.338 -0.004,-0.923 1.328,-2.278 2.577,-3.578 -7.133,-1.41 -14.409,-2.395 -21.797,-2.995 1.382,1.742 1.715,3.274 -2.69,3.484 1.179,3.203 3.946,5.03 5.12,8.132 0.557,1.464 0.096,2.043 0.567,3.493 1.612,5.007 0.913,3.12 0.003,7.009 -2.127,9.114 0.758,11.608 3.243,19.952 2.55,8.58 2.313,19.698 3.947,28.936 0.775,4.422 2.047,13.618 0.511,17.799 -1.73,4.706 -9.34,8.412 -12.826,11.578 -4.934,4.494 -7.557,9.353 -11.22,14.91 -1.861,2.821 -3.981,5.59 -5.431,8.66 -3.103,6.561 0.002,2.655 0.524,6.528 0.5,3.742 -0.446,7.085 1.041,11.012 1.642,4.343 5.744,7.048 7.091,11.427 1.213,3.897 0.29,8.795 -3.713,10.096 -2.232,0.726 -4.693,-0.949 -6.935,-0.582 -3.127,0.507 -6.665,2.84 -9.118,4.707 -3.425,2.608 -4.709,6.849 -8.357,9.322 -3.052,2.064 -5.224,0.828 -8.49,1.793 -3.406,1.004 -5.509,5.206 -8.257,6.522 -4.124,1.972 -6.447,-0.859 -10.8,-0.288 -3.702,0.486 -9.347,4.589 -12.806,6.138 -7.033,3.148 -11.317,6.622 -14.128,13.76 -2.409,6.122 -5.92,8.977 -10.055,14.076 -4.188,5.166 -5.501,9.566 -11.958,10.944 -0.758,0.164 1.58,-5.425 1.821,-5.871 2.308,-4.273 5.772,-8.176 8.559,-12.153 4.101,-5.859 2.354,-6.959 -1.817,-1.293 -4.77,6.481 -10.305,12.927 -14.443,19.79 -1.564,2.595 -1.263,4.273 -3.842,6.737 -2.495,2.379 -5.756,3.537 -8.266,5.8 -9.031,8.123 -10.674,18.965 -9.644,30.545 0.335,3.772 1.699,6.792 1.097,10.419 -0.496,3.013 -2.275,5.503 -4.496,7.724 -0.717,1.138 -2.514,3.947 -2.618,4.127 -2.05,3.404 -3.645,6.755 -6.903,9.55 -1.868,1.607 -6.703,5.37 -11.255,8.523 20.454,25.508 47.217,45.725 77.92,58.278 0.245,-1.542 0.907,-3.084 1.901,-4.558 2.525,-3.745 4.931,-3.449 9.857,-4.487 -0.527,-5.717 -7.213,-5.762 -11.738,-5.141 -5.401,0.738 -11.084,2.534 -15.764,-2.201 2.585,-1.554 9.678,-7.605 8.737,-1.282 5.173,0.259 10.175,0.414 15.238,-0.204 2.029,-0.25 8.824,-2.53 10.667,-1.49 0.772,0.436 1.597,4.249 2.414,5.423 -1.443,-0.008 -2.991,0.72 -4.428,0.582 3.353,4.292 6.693,0.926 10.959,-1.048 -4.697,-2.855 -1.912,-9.694 2.681,-4.137 3.771,4.569 -0.924,7.884 -5.713,10.547 4.829,6.04 7.808,6.586 12.352,-0.233 0.75,4.206 4.142,2.522 7.69,2.213 l 0,1.05 c -1.562,-0.036 -3.229,0.862 -4.774,0.699 3.613,5.765 1.306,7.083 6.472,8.963 4.115,1.499 15.85,0.105 17.295,3.971 -8.213,-1.597 -18.135,-1.978 -25.545,-5.713 -3.194,-1.611 -7,-6.693 -10.191,-3.387 -3.27,3.387 2.339,8.837 5.209,10.5 l -0.687,0 c 12.995,2.763 26.453,4.246 40.261,4.246 8.923,0 17.69,-0.659 26.297,-1.835 -2.979,-1.564 -0.775,-2.621 -2.945,-4.219 -4.143,-3.047 -11.497,-5.589 -16.427,-7.515 6.266,0.017 21.436,-5.876 24.355,2.915 -2.023,0.308 -4.041,0.621 -6.062,0.932 3.776,2.504 7.988,4.531 12.411,6.017 39.905,-7.907 75.4,-28.147 102.401,-56.551 -0.192,0.003 -0.383,0.01 -0.57,0.003 m -139.46,85.292 c -120.584,0 -218.334,-97.751 -218.334,-218.334 0,-120.582 97.75,-218.334 218.334,-218.334 120.582,0 218.336,97.752 218.336,218.334 0,120.583 -97.754,218.334 -218.336,218.334 M -95.612,-11.03 c -0.52,0.083 -1.686,-0.07 -2.148,0.268 -0.284,-0.982 0.146,-1.353 2.148,-0.268 m -2.148,0.268 c 0.004,0 0.004,0.004 0.004,0.006 -0.012,0.006 -0.05,0.006 -0.057,0.019 0.011,-0.013 0.042,-0.013 0.053,-0.025 m -83.856,91.564 c 0.023,0.037 0.056,0.069 0.08,0.105 -0.09,0.429 -0.163,0.807 -0.196,1.075 0.041,-0.392 0.083,-0.785 0.116,-1.18" id="path24" style="fill:#ffffff;fill-opacity:1;fill-rule:nonzero;stroke:none"></path></g></g></g></g></svg>
