<svg xmlns="http://www.w3.org/2000/svg" xmlns:svg="http://www.w3.org/2000/svg" height="640" id="svg2" version="1.1" width="640" xml:space="preserve"><defs id="defs6"><clipPath id="clipPath18"><path d="M 0,512 512,512 512,0 0,0 0,512 z" id="path20"></path></clipPath></defs><g id="g12" transform="matrix(1.25,0,0,-1.25,0,640)"><g id="g14"><g clip-path="url(#clipPath18)" id="g16"><g id="g22" transform="translate(270.5078,173.9941)"><path d="m 0,0 c -27.316,-0.03 -54.696,10.671 -75.323,31.318 l -3.266,3.266 46.784,46.799 3.272,-3.267 C -20.479,70.08 -10.3,66.201 0,66.174 c 10.79,0.043 21.088,3.93 29.123,11.942 l 76.701,76.701 c 8.025,8.051 11.909,18.306 11.946,28.895 -0.037,10.495 -3.916,20.723 -11.936,28.769 l -3.268,3.266 C 94.518,223.772 84.283,227.65 73.739,227.69 63.189,227.65 52.954,223.772 44.904,215.747 L 13.367,184.204 c -12.916,-12.922 -33.867,-12.922 -46.787,0 -12.925,12.919 -12.925,33.867 -0.005,46.789 l 31.541,31.544 c 20.794,20.821 48.362,31.36 75.623,31.326 27.256,0.034 54.821,-10.505 75.618,-31.326 l 3.266,-3.264 c 20.783,-20.762 31.357,-48.291 31.319,-75.561 0.038,-27.25 -10.473,-54.848 -31.325,-75.684 L 75.913,31.328 C 54.998,10.387 27.325,0 0.17,0 L 0,0 z" id="path24" style="fill:#ffffff;fill-opacity:1;fill-rule:nonzero;stroke:none"></path></g><g id="g26" transform="translate(163.9658,43.6074)"><path d="m 0,0 c -27.308,-0.027 -54.694,10.67 -75.322,31.324 l -3.264,3.26 c -20.876,20.854 -31.365,48.479 -31.327,75.725 -0.033,27.269 10.556,54.782 31.327,75.517 l 76.703,76.707 c 20.794,20.821 48.362,31.366 75.623,31.327 21.371,0.031 42.931,-6.444 61.267,-19.273 3.035,-1.542 5.882,-3.579 8.42,-6.118 l 5.93,-5.93 3.266,-3.263 -10e-4,0 10e-4,-0.003 -46.781,-46.798 -0.005,0.005 -3.266,3.267 c -8.051,8.024 -18.285,11.902 -28.831,11.942 -10.546,-0.04 -20.781,-3.918 -28.832,-11.942 l -76.711,-76.713 c -8.021,-8.048 -11.901,-18.261 -11.934,-28.725 0.038,-10.627 3.922,-20.886 11.937,-28.932 l 3.269,-3.26 C -20.476,70.079 -10.296,66.204 0,66.176 c 10.794,0.043 21.092,3.928 29.13,11.941 l 33.051,33.051 c 12.923,12.915 33.872,12.915 46.788,-0.006 12.921,-12.917 12.921,-33.863 0,-46.787 L 75.916,31.324 C 55.002,10.387 27.324,0 0.171,0 L 0,0 z" id="path28" style="fill:#ffffff;fill-opacity:1;fill-rule:nonzero;stroke:none"></path></g></g></g></g></svg>