<svg xmlns="http://www.w3.org/2000/svg" xmlns:svg="http://www.w3.org/2000/svg" height="640" id="svg2" version="1.1" width="640" xml:space="preserve"><defs id="defs6"></defs><g id="g12" transform="matrix(1.25,0,0,-1.25,0,640)"><path d="m 408.446,386.919 -36.729,0 0,36.731 36.729,0 0,-36.731 z m 0,-71.47 -36.729,0 0,36.731 36.729,0 0,-36.731 z m 0,-74.571 -36.729,0 0,36.731 36.729,0 0,-36.731 z m 0,-77.679 -36.729,0 0,36.734 36.729,0 0,-36.734 z m 0,-74.567 -36.729,0 0,36.729 36.729,0 0,-36.729 z m -58.729,187.055 -190.065,0 0,130.622 190.065,0 0,-130.622 z m 0,-169.717 -190.065,0 0,130.622 190.065,0 0,-130.622 z m -212.068,280.949 -36.729,0 0,36.731 36.729,0 0,-36.731 z m 0,-71.47 -36.729,0 0,36.731 36.729,0 0,-36.731 z m 0,-74.571 -36.729,0 0,36.731 36.729,0 0,-36.731 z m 0,-77.679 -36.729,0 0,36.734 36.729,0 0,-36.734 z m 0,-74.567 -36.729,0 0,36.729 36.729,0 0,-36.729 z M 83.53,63.908 l 342.308,0 0,384.462 -342.308,0 0,-384.462 z" id="path14" style="fill:#ffffff;fill-opacity:1;fill-rule:nonzero;stroke:none"></path></g></svg>