<svg xmlns="http://www.w3.org/2000/svg" xmlns:svg="http://www.w3.org/2000/svg" height="640" id="svg2" version="1.1" width="640" xml:space="preserve"><defs id="defs6"><clipPath id="clipPath18"><path d="M 0,512 512,512 512,0 0,0 0,512 z" id="path20"></path></clipPath></defs><g id="g12" transform="matrix(1.25,0,0,-1.25,0,640)"><g id="g14"><g clip-path="url(#clipPath18)" id="g16"><g id="g22" transform="translate(254.6206,30.3945)"><path d="m 0,0 c -55.604,-0.036 -111.517,21.319 -153.936,63.766 -42.451,42.424 -63.807,98.338 -63.77,153.944 -0.037,55.605 21.319,111.519 63.774,153.942 12.921,12.917 33.87,12.917 46.79,-0.006 12.921,-12.919 12.914,-33.87 -0.005,-46.789 -29.652,-29.675 -44.347,-68.253 -44.384,-107.147 0.037,-38.892 14.732,-77.478 44.389,-107.157 C -77.481,80.908 -38.895,66.214 0,66.177 c 38.894,0.037 77.481,14.727 107.154,44.376 29.65,29.679 44.346,68.265 44.382,107.157 -0.036,38.888 -14.732,77.472 -44.382,107.153 l 0,-0.006 c -12.92,12.925 -12.92,33.873 0,46.795 12.921,12.917 33.867,12.917 46.794,0 C 196.393,329.226 217.75,273.315 217.706,217.71 217.75,162.104 196.389,106.19 153.942,63.766 111.551,21.35 55.704,-0.002 0.142,0 L 0,0 z" id="path24" style="fill:#ffffff;fill-opacity:1;fill-rule:nonzero;stroke:none"></path></g><g id="g26" transform="translate(221.5371,248.0986)"><path d="m 0,0 0,199.736 c 0,18.269 14.812,33.085 33.088,33.085 18.276,0 33.087,-14.816 33.087,-33.085 L 66.175,0 c 0,-18.269 -14.811,-33.083 -33.087,-33.083 C 14.812,-33.083 0,-18.269 0,0" id="path28" style="fill:#ffffff;fill-opacity:1;fill-rule:nonzero;stroke:none"></path></g></g></g></g></svg>