<svg xmlns="http://www.w3.org/2000/svg" xmlns:svg="http://www.w3.org/2000/svg" height="640" id="svg2" version="1.1" width="640" xml:space="preserve"><defs id="defs6"></defs><g id="g12" transform="matrix(1.25,0,0,-1.25,0,640)"><g id="g14" transform="translate(157.228,197.877)"><path d="m 0,0 -123.897,0 0,-51.36 145.176,0 L 64.764,-7.875 28.45,28.446 0,0 z m 224.401,0.002 -39.592,0 -174.018,174.016 -134.691,0 0,-51.363 113.413,0 174.02,-174.019 60.868,0 0,-48.204 89.52,73.886 -89.52,73.886 0,-48.202 z m -34.905,116.331 35.437,-0.007 0,-48.204 89.523,73.886 -89.523,73.886 0,-48.205 -56.624,0 -46.73,-46.446 36.209,-36.432 31.708,31.522 z" id="path16" style="fill:#ffffff;fill-opacity:1;fill-rule:nonzero;stroke:none"></path></g></g></svg>