<svg xmlns="http://www.w3.org/2000/svg" xmlns:svg="http://www.w3.org/2000/svg" height="640" id="svg2" version="1.1" width="640" xml:space="preserve"><defs id="defs6"><clipPath id="clipPath18"><path d="M 0,512 512,512 512,0 0,0 0,512 z" id="path20"></path></clipPath></defs><g id="g12" transform="matrix(1.25,0,0,-1.25,0,640)"><g id="g14"><g clip-path="url(#clipPath18)" id="g16"><g id="g22" transform="translate(378.3584,467.9473)"><path d="m 0,0 c -6.679,6.671 -17.493,6.671 -24.161,0 -6.669,-6.671 -6.669,-17.483 0,-24.155 52.05,-52.071 78.095,-120.128 78.111,-188.341 -0.016,-68.416 -25.954,-136.67 -78.111,-188.851 -6.674,-6.671 -6.669,-17.487 0,-24.155 3.336,-3.337 7.705,-5.006 12.079,-5.006 4.372,0 8.742,1.669 12.082,5.006 58.782,58.781 88.136,135.992 88.114,213.006 C 88.136,-135.623 58.634,-58.634 0,0 m -56.7,-55.102 c -6.672,6.668 -17.487,6.668 -24.159,0 -6.669,-6.674 -6.669,-17.486 0.005,-24.158 l -0.005,0.006 c 36.835,-36.851 55.274,-84.963 55.291,-133.223 -0.023,-48.486 -18.349,-96.805 -55.291,-133.768 -6.673,-6.671 -6.669,-17.489 0.005,-24.157 3.335,-3.334 7.705,-5.004 12.074,-5.004 4.375,0 8.748,1.67 12.085,5.004 43.572,43.578 65.307,100.86 65.286,157.925 0.017,56.936 -21.879,113.973 -65.291,157.375 m -53.94,-54.097 c -6.67,6.671 -17.487,6.671 -24.158,0 -6.671,-6.672 -6.671,-17.48 0.006,-24.152 l -0.006,0 c 21.942,-21.955 32.863,-50.555 32.886,-79.312 -0.023,-28.833 -10.919,-57.503 -32.886,-79.485 -6.671,-6.677 -6.671,-17.493 0.006,-24.164 3.335,-3.332 7.706,-4.997 12.076,-4.997 4.371,0 8.746,1.665 12.081,5.003 28.579,28.583 42.904,66.207 42.885,103.643 0.019,37.408 -14.358,74.943 -42.89,103.464 m -224.117,-47.006 0,-113.096 50.84,0 113.563,-84.29 0,281.68 -113.563,-84.294 -50.84,0 z" id="path24" style="fill:#ffffff;fill-opacity:1;fill-rule:nonzero;stroke:none"></path></g></g></g></g></svg>