<svg xmlns="http://www.w3.org/2000/svg" xmlns:svg="http://www.w3.org/2000/svg" height="640" id="svg2" version="1.1" width="640" xml:space="preserve"><defs id="defs6"><clipPath id="clipPath22"><path d="M 0,512 512,512 512,0 0,0 0,512 z" id="path24"></path></clipPath></defs><g id="g12" transform="matrix(1.25,0,0,-1.25,0,640)"><g id="g14" transform="translate(287.2363,401.4854)"><path d="m 0,0 6.549,6.518 117.629,0 0,31.92 -28.793,28.796 -108.393,-0.005 -203.325,-202.268 40.187,-40.19 L 0,0 z" id="path16" style="fill:#ffffff;fill-opacity:1;fill-rule:nonzero;stroke:none"></path></g><g id="g18"><g clip-path="url(#clipPath22)" id="g20"><g id="g26" transform="translate(403.5107,307.8955)"><path d="m 0,0 c -11.336,-11.338 -29.72,-11.338 -41.058,0 -11.339,11.337 -11.339,29.72 0,41.054 C -29.72,52.398 -11.336,52.398 0,41.058 11.337,29.72 11.338,11.337 0,0 m 7.901,77.725 -108.392,0 -203.328,-202.268 140.645,-140.649 199.868,199.87 0,114.256 -28.793,28.791 z" id="path28" style="fill:#ffffff;fill-opacity:1;fill-rule:nonzero;stroke:none"></path></g></g></g></g></svg>