<svg xmlns="http://www.w3.org/2000/svg" xmlns:svg="http://www.w3.org/2000/svg" height="640" id="svg2" version="1.1" width="640" xml:space="preserve"><defs id="defs6"><clipPath id="clipPath18"><path d="M 0,512 512,512 512,0 0,0 0,512 z" id="path20"></path></clipPath></defs><g id="g12" transform="matrix(1.25,0,0,-1.25,0,640)"><g id="g14"><g clip-path="url(#clipPath18)" id="g16"><g id="g22" transform="translate(331.1348,413.625)"><path d="m 0,0 c 3.677,-14.798 4.045,-16.031 3.702,-31.225 -0.138,-5.855 -3.5,-32.936 -2.586,-41.242 0.751,-6.851 2.46,-7.394 5.162,-13.04 4.705,-9.824 3.13,-23.376 1.326,-33.283 -0.989,-5.42 -3.077,-13.136 -6.249,-17.561 -3.497,-4.876 -10.498,-4.912 -13.591,-10.601 -4.459,-8.195 -1.942,-19.693 -4.752,-28.54 -3.194,-10.033 -11.325,-10.738 -11.939,-23.867 3.987,-0.563 7.962,-1.134 11.939,-1.704 3.99,-8.484 11.297,-25.551 18.759,-30.687 6.25,-1.705 12.504,-3.411 18.751,-5.113 21.908,-8.983 46.251,-19.733 68.205,-28.988 19.991,-8.433 43.926,-11.439 51.151,-32.396 0,-14.23 1.343,-47.849 0.976,-66.497 l -435.475,0 c -0.367,18.648 0.974,52.267 0.974,66.497 7.225,20.957 31.16,23.963 51.151,32.396 21.953,9.255 46.297,20.005 68.201,28.988 6.25,1.702 12.506,3.408 18.754,5.113 7.461,5.136 14.77,22.203 18.76,30.687 l 8.877,2.159 c -2.017,11.206 -8.954,12.078 -11.845,20.009 -1.134,11.932 -2.269,23.871 -3.408,35.806 0.054,-0.563 -8.163,1.497 -9.239,2.171 -11.58,7.256 -11.816,36.723 -12.93,48.978 -0.508,5.602 7.283,10.193 5.118,20.465 -12.69,60.138 5.486,88.282 34.229,97.614 19.951,8.084 57.199,23.074 91.942,1.703 l 8.621,-7.991 13.952,-2.405 C -4.465,13.405 0,0 0,0" id="path24" style="fill:#ffffff;fill-opacity:1;fill-rule:nonzero;stroke:none"></path></g></g></g></g></svg>