<svg xmlns="http://www.w3.org/2000/svg" xmlns:svg="http://www.w3.org/2000/svg" height="640" id="svg2" version="1.1" width="640" xml:space="preserve"><defs id="defs6"><clipPath id="clipPath18"><path d="M 0,512 512,512 512,0 0,0 0,512 z" id="path20"></path></clipPath></defs><g id="g12" transform="matrix(1.25,0,0,-1.25,0,640)"><g id="g14"><g clip-path="url(#clipPath18)" id="g16"><g id="g22" transform="translate(256.166,308.7432)"><path d="m 0,0 c -59.254,0 -114.965,-23.073 -156.863,-64.971 -0.622,-0.623 -1.198,-1.279 -1.819,-1.909 l 31.976,-31.973 c 32.094,33.061 76.987,53.637 126.7,53.637 49.72,0 94.609,-20.576 126.711,-53.637 l 31.967,31.969 c -0.617,0.634 -1.195,1.29 -1.819,1.913 C 114.955,-23.073 59.251,0 0,0 m 220.045,-1.785 c -121.531,121.532 -318.568,121.524 -440.1,0 -0.625,-0.625 -1.195,-1.283 -1.812,-1.906 l 30.662,-30.663 C -142.6,15.212 -74.911,45.999 0,45.999 c 74.906,0 142.592,-30.787 191.203,-80.353 l 30.66,30.663 c -0.621,0.623 -1.191,1.281 -1.818,1.906 M -0.006,-179.527 c -12.612,0 -23.822,-5.661 -31.58,-14.447 L 0,-225.56 l 31.584,31.586 c -7.764,8.786 -18.973,14.447 -31.59,14.447 m -94.087,48.055 29.878,-29.873 c 16.092,17.093 38.877,27.821 64.209,27.821 25.336,0 48.119,-10.728 64.221,-27.821 l 29.873,29.873 c -23.778,24.761 -57.131,40.255 -94.094,40.255 -36.957,0 -70.303,-15.494 -94.087,-40.255" id="path24" style="fill:#ffffff;fill-opacity:1;fill-rule:nonzero;stroke:none"></path></g></g></g></g></svg>