<svg xmlns="http://www.w3.org/2000/svg" xmlns:svg="http://www.w3.org/2000/svg" height="640" id="svg2" version="1.1" width="640" xml:space="preserve"><defs id="defs6"></defs><g id="g12" transform="matrix(1.25,0,0,-1.25,0,640)"><path d="m 380.874,159.138 41.208,0 0,41.201 -41.208,0 0,-41.201 z m 0.558,67.213 41.187,0 0,109.362 -69.042,0 0,-41.179 27.855,0 0,-68.183 z m -226.782,-67.213 201.547,0 0,41.201 -201.547,0 0,-41.201 z m -65.875,0 41.187,0 0,41.201 -41.187,0 0,-41.201 z m 167.674,67.653 41.208,0 0,41.188 -41.208,0 0,-41.188 z m -65.543,0 41.175,0 0,41.188 -41.175,0 0,-41.188 z m -24.324,41.188 -77.714,0 0,-41.188 77.714,0 0,41.188 z m -37.37,68.453 -41.185,0 0,-41.183 41.185,0 0,41.183 z m 190.268,-109.641 40.073,0 0,41.188 -40.073,0 0,-41.188 z m 7.719,108.825 -41.209,0 0,-41.178 41.209,0 0,41.178 z m -65.172,0 -41.188,0 0,-41.178 41.188,0 0,41.178 z m -65.144,0 -41.205,0 0,-41.178 41.205,0 0,41.178 z m 252.44,-206.691 -386.75,0 0,253.753 386.75,0 0,-253.753 z m -411.802,-25.052 436.853,0 0,303.855 -436.853,0 0,-303.855 z" id="path14" style="fill:#ffffff;fill-opacity:1;fill-rule:nonzero;stroke:none"></path></g></svg>