<svg xmlns="http://www.w3.org/2000/svg" xmlns:svg="http://www.w3.org/2000/svg" height="640" id="svg2" version="1.1" width="640" xml:space="preserve"><defs id="defs6"><clipPath id="clipPath18"><path d="M 0,512 512,512 512,0 0,0 0,512 z" id="path20"></path></clipPath></defs><g id="g12" transform="matrix(1.25,0,0,-1.25,0,640)"><g id="g14"><g clip-path="url(#clipPath18)" id="g16"><g id="g22" transform="translate(186.8267,339.0293)"><path d="M 0,0 C 0,21.167 8.012,39.893 20.468,53.219 33.02,66.535 49.365,74.201 67.471,74.226 85.566,74.201 101.909,66.541 114.458,53.219 126.914,39.893 134.925,21.167 134.925,0 l 0,-73.603 L 0,-73.603 0,0 z m 218.013,-73.603 -22.084,0 L 195.927,0 c 0,36.675 -13.921,70.311 -36.917,94.892 -22.91,24.585 -55.547,40.367 -91.539,40.337 -36.003,0.03 -68.642,-15.752 -91.55,-40.337 C -47.08,70.311 -60.998,36.675 -61.004,0 l 0,-73.603 -22.081,0 c -9.161,0 -16.585,-7.421 -16.585,-16.583 l 0,-194.531 c 0,-9.158 7.424,-16.585 16.585,-16.585 l 301.098,0 c 9.162,0 16.586,7.427 16.586,16.585 l 0,194.531 c 0,9.162 -7.424,16.583 -16.586,16.583" id="path24" style="fill:#ffffff;fill-opacity:1;fill-rule:nonzero;stroke:none"></path></g></g></g></g></svg>