<svg xmlns="http://www.w3.org/2000/svg" xmlns:svg="http://www.w3.org/2000/svg" height="640" id="svg2" version="1.1" width="640" xml:space="preserve"><defs id="defs6"><clipPath id="clipPath18"><path d="M 0,512 512,512 512,0 0,0 0,512 z" id="path20"></path></clipPath></defs><g id="g12" transform="matrix(1.25,0,0,-1.25,0,640)"><g id="g14"><g clip-path="url(#clipPath18)" id="g16"><g id="g22" transform="translate(437.4326,294.5562)"><path d="m 0,0 -0.07,0 c -18.951,0 -38.133,-22.244 -38.133,-3.306 l 0,102 -96.227,0 c -22.758,0 3.977,-23.061 3.977,-45.826 l 0,-0.083 c 0,-22.77 -18.46,-41.227 -41.218,-41.227 -22.766,0 -41.223,18.457 -41.223,41.227 l -0.078,0.083 c 0,22.252 28.295,45.826 5.528,45.826 l -105.725,0 0,-97.288 c 0,-22.767 -23.572,5.53 -45.822,5.53 l -0.086,-0.081 c -22.769,0 -41.228,-18.454 -41.228,-41.222 0,-22.756 18.459,-41.216 41.228,-41.216 l 0.086,0 c 22.762,0 45.822,26.734 45.822,3.979 l 0,-104.666 110.438,0 c 18.936,0 -3.306,19.18 -3.306,38.128 l 0,0.074 c 0,18.939 15.352,34.293 34.292,34.293 18.947,0 34.298,-15.354 34.298,-34.293 l 0.056,-0.074 c 0,-18.519 -23.533,-38.128 -4.59,-38.128 l 103.778,0 0,112.215 c 0,18.938 19.612,-4.595 38.133,-4.595 L 0,-68.591 c 18.938,0 34.294,15.351 34.294,34.299 C 34.294,-15.354 18.938,0 0,0" id="path24" style="fill:#ffffff;fill-opacity:1;fill-rule:nonzero;stroke:none"></path></g></g></g></g></svg>