<svg xmlns="http://www.w3.org/2000/svg" xmlns:svg="http://www.w3.org/2000/svg" height="640" id="svg2" version="1.1" width="640" xml:space="preserve"><defs id="defs6"><clipPath id="clipPath18"><path d="M 0,512 512,512 512,0 0,0 0,512 z" id="path20"></path></clipPath></defs><g id="g12" transform="matrix(1.25,0,0,-1.25,0,640)"><g id="g14"><g clip-path="url(#clipPath18)" id="g16"><g id="g22" transform="translate(254.2173,248.4688)"><path d="m 0,0 -0.068,0 c -7.855,-0.01 -15.728,1.111 -23.353,3.335 l 0,-177.368 46.705,0 0,177.37 C 15.684,1.117 7.835,0 0,0" id="path24" style="fill:#ffffff;fill-opacity:1;fill-rule:nonzero;stroke:none"></path></g><g id="g26" transform="translate(214.7378,369.9287)"><path d="m 0,0 c -10.892,-10.9 -16.312,-25.036 -16.321,-39.271 0.021,-14.381 5.4,-28.608 16.33,-39.546 10.911,-10.905 25.097,-16.308 39.407,-16.323 14.303,0.015 28.486,5.418 39.401,16.323 10.916,10.92 16.316,25.106 16.326,39.41 C 95.133,-25.099 89.733,-10.918 78.817,0 67.897,10.912 53.719,16.313 39.416,16.328 25.106,16.313 10.92,10.912 0,0" id="path28" style="fill:#ffffff;fill-opacity:1;fill-rule:nonzero;stroke:none"></path></g><g id="g30" transform="translate(129.6953,270.9082)"><path d="m 0,0 c -16.768,16.752 -25.22,38.886 -25.198,60.834 -0.022,21.954 8.43,44.086 25.198,60.834 7.336,7.336 19.227,7.336 26.561,0 7.33,-7.336 7.33,-19.228 -0.005,-26.563 C 17.06,85.598 12.38,73.306 12.363,60.834 12.38,48.361 17.055,36.072 26.556,26.555 l 0.005,0 C 33.891,19.221 33.891,7.331 26.556,0 22.888,-3.667 18.083,-5.5 13.274,-5.5 8.469,-5.5 3.665,-3.667 0,0" id="path32" style="fill:#ffffff;fill-opacity:1;fill-rule:nonzero;stroke:none"></path></g><g id="g34" transform="translate(355.5918,270.9023)"><path d="M 0,0 C -7.335,7.337 -7.34,19.223 -0.005,26.559 9.498,36.086 14.176,48.377 14.193,60.842 14.176,73.312 9.498,85.604 0,95.115 l 0,-0.004 c -7.335,7.335 -7.335,19.225 0,26.559 7.332,7.336 19.221,7.336 26.556,0 C 43.32,104.926 51.774,82.79 51.755,60.842 51.774,38.888 43.313,16.766 26.562,0.01 22.896,-3.661 18.088,-5.494 13.277,-5.494 8.473,-5.494 3.672,-3.661 0,0" id="path36" style="fill:#ffffff;fill-opacity:1;fill-rule:nonzero;stroke:none"></path></g><g id="g38" transform="translate(69.5713,233.4385)"><path d="m 0,0 c -27.111,27.101 -40.733,62.79 -40.717,98.304 -0.016,35.522 13.606,71.215 40.725,98.3 7.337,7.334 19.222,7.334 26.558,0 7.331,-7.335 7.327,-19.224 -0.005,-26.561 C 6.716,150.2 -3.131,124.343 -3.156,98.304 -3.131,72.276 6.716,46.423 26.561,26.55 l 0.005,0 C 33.897,19.223 33.897,7.329 26.561,-0.008 22.893,-3.671 18.088,-5.504 13.282,-5.504 8.477,-5.504 3.668,-3.669 0,0" id="path40" style="fill:#ffffff;fill-opacity:1;fill-rule:nonzero;stroke:none"></path></g><g id="g42" transform="translate(415.7109,233.4307)"><path d="M 0,0 C -7.338,7.337 -7.338,19.225 -0.009,26.56 19.846,46.423 29.697,72.284 29.713,98.306 29.697,124.34 19.846,150.2 0,170.063 l 0,-0.012 c -7.338,7.337 -7.338,19.225 0,26.561 7.331,7.334 19.221,7.334 26.557,0 C 53.664,169.518 67.299,133.82 67.274,98.306 67.299,62.792 53.664,27.104 26.564,0 22.896,-3.667 18.088,-5.502 13.282,-5.502 8.475,-5.502 3.667,-3.667 0,0" id="path44" style="fill:#ffffff;fill-opacity:1;fill-rule:nonzero;stroke:none"></path></g></g></g></g></svg>