<svg xmlns="http://www.w3.org/2000/svg" xmlns:svg="http://www.w3.org/2000/svg" height="640" id="svg2" version="1.1" width="640" xml:space="preserve"><defs id="defs6"><clipPath id="clipPath18"><path d="M 0,512 512,512 512,0 0,0 0,512 z" id="path20"></path></clipPath></defs><g id="g12" transform="matrix(1.25,0,0,-1.25,0,640)"><g id="g14"><g clip-path="url(#clipPath18)" id="g16"><g id="g22" transform="translate(329.0469,180.2598)"><path d="m 0,0 c -11.102,0 -21.602,-2.572 -30.949,-7.142 l -54.123,54.129 c 3.98,8.833 6.216,18.63 6.216,28.953 0,10.324 -2.236,20.12 -6.218,28.96 l 53.899,53.899 c 9.4,-4.637 19.981,-7.258 31.175,-7.258 38.983,0 70.581,31.602 70.581,70.583 0,38.98 -31.598,70.579 -70.581,70.579 -38.979,0 -70.576,-31.599 -70.576,-70.579 0,-9.443 1.865,-18.448 5.23,-26.682 l -55.137,-55.136 c -8.839,3.98 -18.632,6.214 -28.953,6.214 -38.981,0 -70.58,-31.598 -70.58,-70.58 0,-38.981 31.599,-70.579 70.58,-70.579 10.325,0 20.118,2.231 28.953,6.214 l 55.236,-55.235 c -3.429,-8.299 -5.329,-17.387 -5.329,-26.923 0,-38.98 31.597,-70.579 70.576,-70.579 38.983,0 70.581,31.599 70.581,70.579 C 70.581,-31.602 38.983,0 0,0" id="path24" style="fill:#ffffff;fill-opacity:1;fill-rule:nonzero;stroke:none"></path></g></g></g></g></svg>